<svg id="Layer_1" enable-background="new 0 0 256 256" height="512" viewBox="0 0 256 256" width="512" xmlns="http://www.w3.org/2000/svg"><path d="m180.679 249.237h-151.949c-13.499 0-24.443-10.943-24.443-24.443v-155.457l62.287-62.574h114.106c13.499 0 24.443 10.943 24.443 24.443v193.588c-.001 13.499-10.944 24.443-24.444 24.443z" fill="#f4efed"/><path d="m14.064 224.794v-155.457l52.509-52.797v-9.777l-62.286 62.574v155.457c0 13.499 10.944 24.443 24.443 24.443h9.777c-13.499 0-24.443-10.944-24.443-24.443z" fill="#fff"/><path d="m180.679 6.763h-9.777c13.499 0 24.443 10.943 24.443 24.443v193.588c0 13.499-10.943 24.443-24.443 24.443h9.777c13.499 0 24.443-10.943 24.443-24.443v-193.588c0-13.499-10.943-24.443-24.443-24.443z" fill="#d6d1cf"/><path d="m180.679 251.237h-151.949c-14.581 0-26.443-11.862-26.443-26.443v-155.457c0-.529.209-1.036.583-1.411l62.286-62.574c.375-.377.885-.589 1.417-.589h114.105c14.581 0 26.443 11.862 26.443 26.443v193.588c.001 14.581-11.861 26.443-26.442 26.443zm-174.392-181.074v154.631c0 12.375 10.068 22.443 22.443 22.443h151.949c12.375 0 22.443-10.068 22.443-22.443v-193.588c0-12.375-10.068-22.443-22.443-22.443h-113.274z" fill="#690589"/><path d="m12.109 106.501c-1.104 0-2-.896-2-2v-11.732c0-1.104.896-2 2-2s2 .896 2 2v11.732c0 1.104-.896 2-2 2z" fill="#690589"/><path d="m143.801 216.24-35.28 9.567c-3.645.988-6.986-2.353-5.998-5.998l9.567-35.279 103.012-103.011c3.818-3.818 10.009-3.818 13.827 0l17.883 17.883c3.818 3.818 3.818 10.009 0 13.827z" fill="#fcc24c"/><path d="m143.801 216.24-31.71-31.71-9.567 35.279c-.988 3.645 2.353 6.986 5.998 5.998z" fill="#f4efed"/><path d="m108.181 225.467 9.567-35.279 103.011-103.012c3.818-3.818 10.009-3.818 13.827 0l12.226 12.226-17.883-17.883c-3.818-3.818-10.009-3.818-13.827 0l-103.011 103.011-9.567 35.279c-.95 3.502 2.099 6.712 5.572 6.083.026-.141.046-.282.085-.425z" fill="#fce06a"/><path d="m108.181 225.467 9.567-35.279-5.657-5.657-9.567 35.279c-.95 3.502 2.099 6.712 5.572 6.083.026-.142.046-.283.085-.426z" fill="#fff"/><path d="m246.812 113.229c3.818-3.818 3.818-10.009 0-13.827l-5.657-5.657c3.818 3.818 3.818 10.009 0 13.827l-103.011 103.011-35.28 9.567c-.143.039-.284.059-.426.085-.629 3.473 2.581 6.521 6.083 5.572l35.28-9.567z" fill="#dea42e"/><path d="m127.946 202.385c-.512 0-1.024-.195-1.414-.586-.781-.781-.781-2.047 0-2.828l88.542-88.542c.78-.781 2.048-.781 2.828 0 .781.781.781 2.047 0 2.828l-88.542 88.542c-.39.391-.902.586-1.414.586z" fill="#690589"/><path d="m107.209 227.984c-1.793 0-3.519-.705-4.838-2.024-1.768-1.767-2.432-4.262-1.778-6.674l9.567-35.279c.091-.337.269-.644.516-.891l103.012-103.011c2.224-2.225 5.182-3.45 8.327-3.45 3.146 0 6.104 1.225 8.328 3.45l17.882 17.883c2.225 2.224 3.45 5.182 3.45 8.328s-1.225 6.103-3.45 8.327l-103.01 103.011c-.247.247-.554.425-.891.516l-35.28 9.567c-.61.166-1.226.247-1.835.247zm6.673-42.416-9.428 34.765c-.274 1.012.004 2.058.746 2.799.74.74 1.785 1.019 2.798.746l34.766-9.428 102.634-102.634c1.469-1.469 2.278-3.422 2.278-5.499s-.809-4.03-2.278-5.5l-17.883-17.883c-1.469-1.469-3.422-2.278-5.5-2.278-2.077 0-4.03.809-5.499 2.278zm29.919 30.672h.01z" fill="#690589"/><path d="m200.634 95.988 31.71 31.71 14.468-14.468c3.818-3.818 3.818-10.009 0-13.827l-17.883-17.883c-3.818-3.818-10.009-3.818-13.827 0z" fill="#ff4397"/><path d="m234.586 87.176 12.226 12.226-17.883-17.883c-3.818-3.818-10.009-3.818-13.827 0l-14.468 14.468 5.657 5.657 14.468-14.468c3.818-3.818 10.009-3.818 13.827 0z" fill="#ff61b5"/><path d="m246.812 99.402-5.657-5.657c3.818 3.818 3.818 10.009 0 13.827l-14.468 14.468 5.657 5.657 14.468-14.468c3.818-3.818 3.818-10.009 0-13.827z" fill="#e12579"/><path d="m232.344 129.697c-.512 0-1.024-.195-1.414-.586l-31.71-31.709c-.781-.781-.781-2.047 0-2.828l14.468-14.468c2.224-2.225 5.182-3.45 8.327-3.45 3.146 0 6.104 1.225 8.328 3.45l17.883 17.883c2.225 2.224 3.45 5.182 3.45 8.328s-1.225 6.103-3.45 8.327l-14.468 14.468c-.39.39-.903.585-1.414.585zm-28.881-33.709 28.881 28.881 13.054-13.054c1.469-1.469 2.278-3.422 2.278-5.499s-.809-4.03-2.278-5.5l-17.883-17.883c-1.469-1.469-3.422-2.278-5.5-2.278-2.077 0-4.03.809-5.499 2.278z" fill="#690589"/><path d="m112.091 184.53 26.053 26.053-35.28 9.567c-.143.039-.284.059-.426.085-.629 3.473 2.581 6.521 6.083 5.572l35.28-9.567z" fill="#d6d1cf"/><path d="m107.21 227.984c-1.794 0-3.519-.705-4.839-2.024-1.767-1.767-2.432-4.262-1.777-6.674l9.567-35.279c.187-.688.726-1.226 1.416-1.409.687-.183 1.424.014 1.929.519l31.71 31.71c.504.504.702 1.239.519 1.929s-.721 1.229-1.409 1.416l-35.279 9.567c-.612.164-1.229.245-1.837.245zm5.908-39.599-8.664 31.948c-.274 1.012.004 2.058.746 2.799.741.741 1.785 1.019 2.799.746l31.948-8.664z" fill="#690589"/><path d="m107.21 227.984c-1.794 0-3.519-.705-4.839-2.024-1.767-1.767-2.432-4.262-1.777-6.674l4.612-17.007c.187-.688.726-1.226 1.416-1.409.688-.185 1.424.014 1.929.519l18.393 18.393c.504.504.702 1.239.519 1.929s-.721 1.229-1.409 1.416l-17.007 4.612c-.612.164-1.229.245-1.837.245zm.953-21.327-3.709 13.676c-.274 1.012.004 2.058.746 2.799.741.741 1.785 1.019 2.799.746l13.676-3.709z" fill="#690589"/><path d="m107.136 202.802-4.612 17.008c-.988 3.645 2.353 6.986 5.998 5.998l17.008-4.612z" fill="#690589"/><path d="m4 69.337h38.131c13.499 0 24.443-10.943 24.443-24.443v-38.131z" fill="#8852a8"/><path d="m66.574 6.763-62.574 62.574h9.777l52.797-52.796z" fill="#a670c6"/><g fill="#690589"><path d="m42.131 71.337h-38.131c-.809 0-1.538-.487-1.848-1.235-.31-.747-.139-1.607.434-2.179l62.574-62.574c.571-.573 1.433-.744 2.179-.434.748.31 1.235 1.039 1.235 1.848v38.131c0 14.581-11.863 26.443-26.443 26.443zm-33.302-4h33.302c12.375 0 22.443-10.068 22.443-22.443v-33.302z"/><path d="m166.79 102.624h-124.17c-1.104 0-2-.896-2-2s.896-2 2-2h124.17c1.104 0 2 .896 2 2s-.896 2-2 2z"/><path d="m137.947 143.688h-94.839c-1.104 0-2-.896-2-2s.896-2 2-2h94.838c1.104 0 2 .896 2 2s-.895 2-1.999 2z"/><path d="m102.749 184.752h-59.152c-1.104 0-2-.896-2-2s.896-2 2-2h59.152c1.104 0 2 .896 2 2s-.895 2-2 2z"/><path d="m91.017 225.816h-46.93c-1.104 0-2-.896-2-2s.896-2 2-2h46.93c1.104 0 2 .896 2 2s-.896 2-2 2z"/></g></svg>