<svg id="Layer_3" height="512" viewBox="0 0 512 512" width="512" xmlns="http://www.w3.org/2000/svg" data-name="Layer 3"><path d="m256 448v-100c0-33.137-30.863-60-64-60h-124a60 60 0 0 0 -60 60v124a32 32 0 0 0 32 32h240v-56z" fill="#4edddd"/><path d="m280 448h32v56h-32z" fill="#fdcaa7"/><path d="m504 352h-144l-48 128h136z" fill="#0487a5"/><path d="m216 480h232v24h-232z" fill="#047b8e"/><path d="m184 448h40l24 32h-64z" fill="#fdcaa7"/><path d="m96 288v48l48-48 40 48v-48z" fill="#0fb2aa"/><path d="m192 288v-136a32 32 0 0 0 -32-32h-29.822a58.178 58.178 0 0 0 -58.178 58.178v109.822z" fill="#894619"/><path d="m192 152v67.773c0 17.966-9.671 26.16-26.131 30.627a7.979 7.979 0 0 0 -5.869 7.708v29.892h-32v-24a16 16 0 0 0 -10.675-15.083c-13.477-4.75-13.325-13-13.325-29.143v-27.774l32-40z" fill="#fdcaa7"/><path d="m248 480h-64v-32h40z" fill="#fdcaa7"/><path d="m236 464h-188v-16h176z" fill="#fafbfc" opacity=".3"/><path d="m248 24h256v64h-256z" fill="#27b1e2"/><path d="m248 88h256v184h-256z" fill="#f7d74f"/><circle cx="376" cy="176" fill="#fff" r="48"/><path d="m248 24 200 248h56v-248z" fill="#fafbfc" opacity=".3"/><path d="m376 352-48 128h120l56-128z" fill="#067789"/><path d="m8 348v124a32.013 32.013 0 0 0 24 30.992v-158.992c0-40 40-56 40-56h-4a60 60 0 0 0 -60 60z" fill="#fafbfc" opacity=".3"/><path d="m136 120h-5.822a58.178 58.178 0 0 0 -58.178 58.178v109.822h16v-96c0-48 48-72 48-72z" fill="#fafbfc" opacity=".3"/><path d="m40 512h144a8 8 0 0 0 8-8v-16h16v16a8 8 0 0 0 8 8h232a8 8 0 0 0 8-8v-22.326l55.329-126.467a8 8 0 0 0 -7.329-11.207h-144a8 8 0 0 0 -7.49 5.191l-34.053 90.809h-58.457v-92a68.088 68.088 0 0 0 -60-67.513v-56.487h-.172c.108-1.357.172-2.759.172-4.227v-67.773a40.046 40.046 0 0 0 -40-40h-29.822a66.253 66.253 0 0 0 -66.178 66.178v101.949a68.08 68.08 0 0 0 -64 67.873v124a40.046 40.046 0 0 0 40 40zm152-56h28l12 16h-40zm248 40h-216v-8h216zm-74.456-136h126.224l-49 112h-119.224zm-59.087 112h-18.457v-16h24.457zm-202.457-176h20.686l-20.686 20.687zm63.965-37.878a58.039 58.039 0 0 0 16.035-6.677v28.555h-16.009zm8.035 37.878v17.9l-14.92-17.9zm8-76.227c0 12.7-5.482 18.905-20.226 22.907a16 16 0 0 0 -11.774 15.427v21.893h-16v-16a24.027 24.027 0 0 0 -16.016-22.628c-7.39-2.6-7.986-4.18-7.984-21.065v-25.5l27.845-34.807h44.155zm-53.822-91.773h29.822a24.042 24.042 0 0 1 22.629 16h-46.629a8 8 0 0 0 -6.247 3l-32 40a8 8 0 0 0 -1.753 5v28.3c0 15.871 0 29.577 18.666 36.157a8 8 0 0 1 5.334 7.543v16h-40v-101.822a50.235 50.235 0 0 1 50.178-50.178zm-114.178 220a52.059 52.059 0 0 1 52-52h20v40a8 8 0 0 0 13.657 5.657l41.8-41.806 34.393 41.27a8 8 0 0 0 14.15-5.121v-40a52.059 52.059 0 0 1 52 52v100a8 8 0 0 0 8 8h20v16h-20l-21.6-28.8a8 8 0 0 0 -6.4-3.2h-32v-11.719l20.438-13.625a8 8 0 0 0 3.562-6.656v-64h-16v59.719l-20.437 13.625a8 8 0 0 0 -3.563 6.656v16h-112v-96h-16v104a8 8 0 0 0 8 8h120v40h-136a24.027 24.027 0 0 1 -24-24z"/><path d="m128 176h16v16h-16z"/><path d="m160 176h16v16h-16z"/><path d="m504 16h-40v-16h-16v16h-136v-16h-16v16h-48a8 8 0 0 0 -8 8v248a8 8 0 0 0 8 8h256a8 8 0 0 0 8-8v-248a8 8 0 0 0 -8-8zm-8 248h-240v-168h240zm-240-184v-48h40v24h16v-24h136v24h16v-24h32v48z"/><path d="m376 232a55.97 55.97 0 0 0 48.045-84.731l13.612-13.612-11.314-11.314-12.46 12.46a55.986 55.986 0 1 0 -37.883 97.197zm0-96a39.83 39.83 0 0 1 26.56 10.126l-25.317 25.317-10.587-15.881-13.312 8.875 16 24a8 8 0 0 0 5.868 3.523q.4.04.789.039a8 8 0 0 0 5.656-2.343l30.576-30.576a39.993 39.993 0 1 1 -36.233-23.08z"/></svg>